# xmcd
#
# Track frame offsets: 
#        150
#        18286
#        36644
#        54574
#        73733
#        95196
#        109499
#        126996
#        144061
#        159482
#
# Disc length: 2354 seconds
#
# Revision: 0
# Processed by: cddbd v1.5.2PL0 Copyright (c) Steve Scherf et al.
# Submitted via: ExactAudioCopy v0.95b4
#
DISCID=9209300a
DTITLE=หมี งามดี - เกี้ยวสาวฟังลำ
DYEAR=2007
DGENRE=Country
TTITLE0=เกี้ยวสาวฟังลำ
TTITLE1=มักสาวขาลาย
TTITLE2=สงกรานต์กลับบ้านบ่
TTITLE3=เมาแป๋ตาย
TTITLE4=นักเลงกลับใจ
TTITLE5=บักซิ่งบักซ่า
TTITLE6=เกิดมาหล่อ
TTITLE7=เฮือนอ้ายหลังน้อย
TTITLE8=พระรองร้องไห้
TTITLE9=ถูกบังคับใจ
EXTD=
EXTT0=
EXTT1=
EXTT2=
EXTT3=
EXTT4=
EXTT5=
EXTT6=
EXTT7=
EXTT8=
EXTT9=
PLAYORDER=
